<svg xmlns="http://www.w3.org/2000/svg" width="460" height="580" viewBox="0 0 460 580">
  <defs>
    <linearGradient id="barGrad" x1="0" y1="0" x2="0" y2="1">
      <stop offset="0%" stop-color="#F7931A"/>
      <stop offset="100%" stop-color="#C97400"/>
    </linearGradient>
    <linearGradient id="bg" x1="0" y1="0" x2="0" y2="1">
      <stop offset="0%" stop-color="#1e1e1e"/>
      <stop offset="100%" stop-color="#252526"/>
    </linearGradient>
  </defs>

  <!-- VS Code sidebar background -->
  <rect width="460" height="580" rx="10" fill="url(#bg)"/>

  <!-- Top activity bar strip -->
  <rect width="48" height="580" rx="0" fill="#333333"/>
  <!-- lightning bolt icon active -->
  <rect x="10" y="12" width="28" height="28" rx="4" fill="#F7931A" opacity="0.2"/>
  <polygon points="28,14 19,28 25,28 22,40 34,25 28,25" fill="#F7931A"/>
  <!-- other icons -->
  <rect x="13" y="56" width="22" height="2" rx="1" fill="#858585"/>
  <rect x="13" y="62" width="22" height="2" rx="1" fill="#858585"/>
  <rect x="13" y="68" width="16" height="2" rx="1" fill="#858585"/>
  <rect x="13" y="92" width="22" height="4" rx="2" fill="#858585" opacity="0.5"/>
  <rect x="13" y="104" width="22" height="4" rx="2" fill="#858585" opacity="0.5"/>
  <rect x="13" y="116" width="18" height="4" rx="2" fill="#858585" opacity="0.5"/>

  <!-- Main panel area -->
  <!-- Header bar -->
  <rect x="48" y="0" width="412" height="44" rx="0" fill="#252526"/>
  <text x="64" y="27" font-family="'Segoe UI', system-ui, sans-serif" font-size="12" font-weight="600" fill="#cccccc" letter-spacing="0.5">SHINY DAPPS ⚡</text>

  <!-- Language + Theme selector row -->
  <rect x="48" y="44" width="412" height="36" fill="#2d2d2d"/>
  <!-- lang pill -->
  <rect x="58" y="52" width="48" height="20" rx="4" fill="#3c3c3c" stroke="#F7931A" stroke-width="1"/>
  <text x="82" y="66" font-family="'Segoe UI', sans-serif" font-size="11" fill="#F7931A" text-anchor="middle">🇺🇸 EN</text>
  <rect x="112" y="52" width="32" height="20" rx="4" fill="#3c3c3c"/>
  <text x="128" y="66" font-family="'Segoe UI', sans-serif" font-size="11" fill="#858585" text-anchor="middle">PT</text>
  <rect x="150" y="52" width="32" height="20" rx="4" fill="#3c3c3c"/>
  <text x="166" y="66" font-family="'Segoe UI', sans-serif" font-size="11" fill="#858585" text-anchor="middle">ES</text>
  <rect x="188" y="52" width="32" height="20" rx="4" fill="#3c3c3c"/>
  <text x="204" y="66" font-family="'Segoe UI', sans-serif" font-size="11" fill="#858585" text-anchor="middle">中文</text>
  <text x="230" y="66" font-family="'Segoe UI', sans-serif" font-size="10" fill="#555" text-anchor="middle">···</text>
  <!-- theme pill -->
  <rect x="390" y="52" width="58" height="20" rx="4" fill="#3c3c3c"/>
  <text x="419" y="66" font-family="'Segoe UI', sans-serif" font-size="11" fill="#858585" text-anchor="middle">🌙 Dark</text>

  <!-- Total sats card -->
  <rect x="58" y="92" width="180" height="72" rx="8" fill="#2a2a2a" stroke="#F7931A" stroke-width="1" stroke-opacity="0.4"/>
  <text x="68" y="112" font-family="'Segoe UI', sans-serif" font-size="11" fill="#858585">Total Earned</text>
  <text x="68" y="140" font-family="'Segoe UI Mono', monospace" font-size="24" font-weight="700" fill="#F7931A">12,847</text>
  <text x="68" y="156" font-family="'Segoe UI', sans-serif" font-size="10" fill="#555">sats ≈ $7.71</text>

  <!-- Payments today card -->
  <rect x="250" y="92" width="180" height="72" rx="8" fill="#2a2a2a" stroke="#3c3c3c" stroke-width="1"/>
  <text x="260" y="112" font-family="'Segoe UI', sans-serif" font-size="11" fill="#858585">Payments Today</text>
  <text x="260" y="140" font-family="'Segoe UI Mono', monospace" font-size="24" font-weight="700" fill="#cccccc">24</text>
  <text x="260" y="156" font-family="'Segoe UI', sans-serif" font-size="10" fill="#555">calls ↑ 12% vs yesterday</text>

  <!-- Chart section -->
  <rect x="58" y="178" width="372" height="160" rx="8" fill="#2a2a2a"/>
  <text x="68" y="198" font-family="'Segoe UI', sans-serif" font-size="11" fill="#858585">7-Day Earnings (sats)</text>

  <!-- Bar chart — 7 bars -->
  <!-- Mon -->
  <rect x="76"  y="282" width="36" height="42" rx="3" fill="url(#barGrad)" opacity="0.6"/>
  <text x="94"  y="316" font-family="'Segoe UI', sans-serif" font-size="9" fill="#666" text-anchor="middle">Mon</text>
  <!-- Tue -->
  <rect x="122" y="262" width="36" height="62" rx="3" fill="url(#barGrad)" opacity="0.7"/>
  <text x="140" y="316" font-family="'Segoe UI', sans-serif" font-size="9" fill="#666" text-anchor="middle">Tue</text>
  <!-- Wed -->
  <rect x="168" y="270" width="36" height="54" rx="3" fill="url(#barGrad)" opacity="0.75"/>
  <text x="186" y="316" font-family="'Segoe UI', sans-serif" font-size="9" fill="#666" text-anchor="middle">Wed</text>
  <!-- Thu -->
  <rect x="214" y="250" width="36" height="74" rx="3" fill="url(#barGrad)" opacity="0.8"/>
  <text x="232" y="316" font-family="'Segoe UI', sans-serif" font-size="9" fill="#666" text-anchor="middle">Thu</text>
  <!-- Fri -->
  <rect x="260" y="238" width="36" height="86" rx="3" fill="url(#barGrad)" opacity="0.9"/>
  <text x="278" y="316" font-family="'Segoe UI', sans-serif" font-size="9" fill="#666" text-anchor="middle">Fri</text>
  <!-- Sat -->
  <rect x="306" y="258" width="36" height="66" rx="3" fill="url(#barGrad)" opacity="0.7"/>
  <text x="324" y="316" font-family="'Segoe UI', sans-serif" font-size="9" fill="#666" text-anchor="middle">Sat</text>
  <!-- Sun (today) — highlighted -->
  <rect x="352" y="220" width="36" height="84" rx="3" fill="#F7931A"/>
  <text x="370" y="316" font-family="'Segoe UI', sans-serif" font-size="9" fill="#F7931A" text-anchor="middle" font-weight="600">Today</text>
  <!-- grid lines -->
  <line x1="68" y1="220" x2="400" y2="220" stroke="#333" stroke-width="0.5" stroke-dasharray="3,3"/>
  <line x1="68" y1="260" x2="400" y2="260" stroke="#333" stroke-width="0.5" stroke-dasharray="3,3"/>
  <line x1="68" y1="300" x2="400" y2="300" stroke="#333" stroke-width="0.5" stroke-dasharray="3,3"/>

  <!-- Recent payments list -->
  <text x="68" y="366" font-family="'Segoe UI', sans-serif" font-size="11" fill="#858585">Recent Payments</text>

  <!-- payment row 1 -->
  <rect x="58" y="374" width="372" height="40" rx="6" fill="#2a2a2a"/>
  <circle cx="78" cy="394" r="8" fill="#F7931A" opacity="0.15"/>
  <text x="78" y="398" font-family="monospace" font-size="10" fill="#F7931A" text-anchor="middle">⚡</text>
  <text x="96" y="390" font-family="'Segoe UI', sans-serif" font-size="11" fill="#cccccc">/api/premium</text>
  <text x="96" y="404" font-family="'Segoe UI Mono', monospace" font-size="10" fill="#555">2s ago · preimage: 4bcd...f8a2</text>
  <text x="412" y="398" font-family="'Segoe UI Mono', monospace" font-size="12" font-weight="700" fill="#F7931A" text-anchor="end">+100 sats</text>

  <!-- payment row 2 -->
  <rect x="58" y="420" width="372" height="40" rx="6" fill="#2a2a2a"/>
  <circle cx="78" cy="440" r="8" fill="#F7931A" opacity="0.15"/>
  <text x="78" y="444" font-family="monospace" font-size="10" fill="#F7931A" text-anchor="middle">⚡</text>
  <text x="96" y="436" font-family="'Segoe UI', sans-serif" font-size="11" fill="#cccccc">/ai/weather</text>
  <text x="96" y="450" font-family="'Segoe UI Mono', monospace" font-size="10" fill="#555">14s ago · preimage: 9ef1...c3b7</text>
  <text x="412" y="444" font-family="'Segoe UI Mono', monospace" font-size="12" font-weight="700" fill="#F7931A" text-anchor="end">+21 sats</text>

  <!-- payment row 3 -->
  <rect x="58" y="466" width="372" height="40" rx="6" fill="#2a2a2a"/>
  <circle cx="78" cy="486" r="8" fill="#F7931A" opacity="0.15"/>
  <text x="78" y="490" font-family="monospace" font-size="10" fill="#F7931A" text-anchor="middle">⚡</text>
  <text x="96" y="482" font-family="'Segoe UI', sans-serif" font-size="11" fill="#cccccc">/data/market</text>
  <text x="96" y="496" font-family="'Segoe UI Mono', monospace" font-size="10" fill="#555">1m ago · preimage: 7ab3...d041</text>
  <text x="412" y="490" font-family="'Segoe UI Mono', monospace" font-size="12" font-weight="700" fill="#F7931A" text-anchor="end">+500 sats</text>

  <!-- Status bar strip at bottom -->
  <rect x="48" y="554" width="412" height="26" fill="#007acc"/>
  <text x="64" y="571" font-family="'Segoe UI', sans-serif" font-size="11" fill="#ffffff">⚡ 12,847 sats received  ·  24 payments today</text>
</svg>
